<?xml version="1.0" encoding="UTF-8" standalone="no"?>
<!-- Created with Inkscape (http://www.inkscape.org/) -->

<svg
   xmlns:osb="http://www.openswatchbook.org/uri/2009/osb"
   xmlns:dc="http://purl.org/dc/elements/1.1/"
   xmlns:cc="http://creativecommons.org/ns#"
   xmlns:rdf="http://www.w3.org/1999/02/22-rdf-syntax-ns#"
   xmlns:svg="http://www.w3.org/2000/svg"
   xmlns="http://www.w3.org/2000/svg"
   xmlns:xlink="http://www.w3.org/1999/xlink"
   xmlns:sodipodi="http://sodipodi.sourceforge.net/DTD/sodipodi-0.dtd"
   xmlns:inkscape="http://www.inkscape.org/namespaces/inkscape"
   width="133.61557mm"
   height="105.90096mm"
   viewBox="0 0 133.61557 105.90096"
   version="1.1"
   id="svg8"
   inkscape:version="0.92.3 (2405546, 2018-03-11)"
   sodipodi:docname="logo.svg">
  <defs
     id="defs2">
    <linearGradient
       inkscape:collect="always"
       id="linearGradient937">
      <stop
         style="stop-color:#000000;stop-opacity:1;"
         offset="0"
         id="stop933" />
      <stop
         style="stop-color:#000000;stop-opacity:0;"
         offset="1"
         id="stop935" />
    </linearGradient>
    <linearGradient
       id="linearGradient6502"
       osb:paint="solid">
      <stop
         style="stop-color:#000000;stop-opacity:1;"
         offset="0"
         id="stop6500" />
    </linearGradient>
    <inkscape:perspective
       sodipodi:type="inkscape:persp3d"
       inkscape:vp_x="0 : 148.49999 : 1"
       inkscape:vp_y="1000 : -2.4492935e-13 : 0"
       inkscape:vp_z="210.00001 : 148.49999 : 1"
       inkscape:persp3d-origin="105 : 98.999993 : 1"
       id="perspective23" />
    <radialGradient
       inkscape:collect="always"
       xlink:href="#linearGradient937"
       id="radialGradient939"
       cx="81.281176"
       cy="27.539323"
       fx="81.281176"
       fy="27.539323"
       r="57.532054"
       gradientTransform="matrix(1,0,0,0.28983306,0,19.557517)"
       gradientUnits="userSpaceOnUse" />
  </defs>
  <sodipodi:namedview
     id="base"
     pagecolor="#ffffff"
     bordercolor="#666666"
     borderopacity="1.0"
     inkscape:pageopacity="0.0"
     inkscape:pageshadow="2"
     inkscape:zoom="1.4142136"
     inkscape:cx="335.36392"
     inkscape:cy="240.34052"
     inkscape:document-units="mm"
     inkscape:current-layer="layer4"
     showgrid="false"
     inkscape:measure-start="0,0"
     inkscape:measure-end="0,0"
     inkscape:window-width="1916"
     inkscape:window-height="1041"
     inkscape:window-x="1920"
     inkscape:window-y="18"
     inkscape:window-maximized="0">
    <inkscape:grid
       type="xygrid"
       id="grid355"
       originx="-13.921614"
       originy="-183.39454" />
  </sodipodi:namedview>
  <metadata
     id="metadata5">
    <rdf:RDF>
      <cc:Work
         rdf:about="">
        <dc:format>image/svg+xml</dc:format>
        <dc:type
           rdf:resource="http://purl.org/dc/dcmitype/StillImage" />
        <dc:title />
      </cc:Work>
    </rdf:RDF>
  </metadata>
  <g
     inkscape:groupmode="layer"
     id="layer2"
     inkscape:label="Down"
     style="display:none"
     transform="translate(-13.921614,-7.7045006)">
    <path
       style="fill:none;stroke:#000000;stroke-width:0.26458332px;stroke-linecap:butt;stroke-linejoin:miter;stroke-opacity:1"
       d="M 17.639789,50.377042 V 91.202465 L 87.129865,113.92037 142.05376,77.972622 v -43.9577 L 85.237803,62.315892 17.721807,44.928982 Z"
       id="path375"
       inkscape:connector-curvature="0" />
    <path
       style="fill:none;stroke:#000000;stroke-width:0.26458332px;stroke-linecap:butt;stroke-linejoin:miter;stroke-opacity:1"
       d="M 21.785051,51.354582 V 88.018275 L 84.245616,108.90145 V 67.513062 Z"
       id="path377"
       inkscape:connector-curvature="0" />
    <path
       style="fill:none;stroke:#000000;stroke-width:0.26458332px;stroke-linecap:butt;stroke-linejoin:miter;stroke-opacity:1"
       d="M 88.781331,107.67303 V 65.717672 l 49.136909,-24.94643 v 35.0573 z"
       id="path379"
       inkscape:connector-curvature="0" />
    <path
       style="fill:#ffffff;fill-opacity:1;stroke-width:0.26726952"
       d="M 59.719733,104.69961 C 44.94641,99.854525 29.521618,94.804845 25.442417,93.478085 l -7.41673,-2.41227 V 68.225656 c 0,-12.562088 0.0902,-22.841158 0.200453,-22.842378 0.110248,-0.0013 15.212967,3.863342 33.561601,8.587922 l 33.361146,8.590143 4.591127,-2.216928 C 92.265131,59.125104 105.00521,52.794844 118.05131,46.27717 l 23.72017,-11.850317 -0.003,21.715947 -0.003,21.715944 -27.15807,17.773421 c -14.936947,9.775385 -27.353642,17.796655 -27.592659,17.825055 -0.239016,0.0284 -12.52184,-3.91253 -27.295162,-8.75761 z M 84.575799,88.292555 V 67.322202 l -1.00226,-0.261993 C 83.022296,66.916114 69.040757,63.301081 52.503455,59.026806 35.966153,54.752528 22.224339,51.189152 21.96609,51.108186 21.520847,50.968598 21.500098,51.924865 21.565186,69.585215 l 0.06864,18.62424 31.270534,10.50235 c 17.198795,5.776295 31.360739,10.513325 31.470986,10.526725 0.110249,0.0134 0.200453,-9.412275 0.200453,-20.945975 z m 28.998741,3.65104 24.5888,-15.959125 0.0687,-17.704911 c 0.0498,-12.823574 -0.013,-17.704914 -0.22759,-17.704914 -0.16298,0 -11.34906,5.613823 -24.85797,12.475162 L 88.584843,65.52497 v 21.200795 c 0,11.66044 0.0902,21.195425 0.200451,21.188875 0.110249,-0.007 11.265406,-7.19353 24.789246,-15.971045 z"
       id="path403"
       inkscape:connector-curvature="0" />
  </g>
  <g
     inkscape:groupmode="layer"
     id="layer4"
     inkscape:label="Down-fill"
     style="display:inline"
     transform="translate(-13.921614,-7.7045006)">
    <path
       style="fill:#f99022;fill-opacity:1;stroke-width:0.50507629"
       d="M 212.68624,391.68484 C 149.07188,370.85918 90.375707,351.65507 82.250293,349.00903 l -14.773481,-4.81097 v -86.66714 -86.66714 l 1.444386,0.28887 c 0.794413,0.15889 57.973392,14.84714 127.064402,32.64056 69.091,17.79342 125.83429,32.35167 126.09621,32.35167 0.26191,0 48.39932,-23.86485 106.97201,-53.033 58.57269,-29.16816 106.64003,-53.03301 106.8163,-53.03301 0.17628,0 0.263,36.98171 0.19272,82.18158 l -0.12779,82.18158 -40.92345,26.78863 c -139.22787,91.13901 -165.06046,107.98653 -165.81881,108.14388 -0.46425,0.0963 -52.89219,-16.86405 -116.50655,-37.6897 z M 319.0048,333.48554 V 254.55459 L 200.69068,223.94227 C 109.13061,200.25223 82.290497,193.47867 81.995961,193.98765 c -0.209331,0.36173 -0.322973,31.8485 -0.252538,69.9706 l 0.128063,69.31289 118.187844,39.54573 c 65.00332,21.75015 118.35831,39.55785 118.56666,39.57268 0.20834,0.0149 0.37881,-35.49198 0.37881,-78.90401 z m 111.54609,12.81616 91.49457,-59.29629 V 220.1589 c 0,-36.76559 -0.17047,-66.84124 -0.37881,-66.83479 -0.42414,0.0131 -45.77983,22.94115 -130.34209,65.88996 l -56.6624,28.7786 0.001,65.16559 c 5.1e-4,35.84108 0.15057,71.80483 0.33347,79.91944 l 0.33253,14.75385 1.86361,-1.11679 c 1.02499,-0.61423 43.03617,-27.80011 93.35819,-60.41306 z"
       id="path4176"
       inkscape:connector-curvature="0"
       transform="scale(0.26458333)" />
    <path
       style="fill:#000000;fill-opacity:1;stroke-width:0.13363476"
       d="m 137.86342,40.203747 c -8.64247,4.075017 -17.08591,8.610724 -25.64983,12.865978 -8.0813,4.106899 -16.17417,8.189962 -24.237566,12.330932 0.121822,14.014109 -8.39e-4,28.035499 0.317979,42.045103 -0.378318,2.35469 1.520039,0.11204 2.525987,-0.30766 15.94543,-10.322257 31.88404,-20.655946 47.85423,-30.940167 -0.091,-12.022627 -0.0386,-24.048606 -0.24391,-36.069116 -0.18896,0.02498 -0.37793,0.04995 -0.56689,0.07493 z"
       id="path4187"
       inkscape:connector-curvature="0" />
    <path
       style="fill:#1a1a1a;fill-opacity:1;stroke-width:0.13363476"
       d="m 21.773141,50.802273 c -0.747123,1.014997 -0.193676,2.573607 -0.401009,3.777549 -0.04314,11.278676 0.0204,22.557464 0.02842,33.836175 21.043295,7.026863 42.065739,14.117423 63.12948,21.081923 0.637537,-2.21388 0.161869,-4.63735 0.370094,-6.92446 0.12778,-11.909097 0.230759,-23.819771 0.09551,-35.729272 C 64.03366,61.479829 43.125918,55.889983 22.114722,50.729409 l -0.183451,-0.02325 z"
       id="path4189"
       inkscape:connector-curvature="0" />
  </g>
  <g
     inkscape:label="Up"
     inkscape:groupmode="layer"
     id="layer1"
     style="display:none"
     transform="translate(-13.921614,-7.7045006)">
    <path
       style="fill:none;stroke:#000000;stroke-width:0.26458332px;stroke-linecap:butt;stroke-linejoin:miter;stroke-opacity:1"
       d="M 13.137454,52.654687 V 28.275222 L 83.724506,7.5810218 147.16429,18.787592 v 21.64884 L 85.692307,71.038787 Z"
       id="path367"
       inkscape:connector-curvature="0" />
    <path
       style="fill:none;stroke:#000000;stroke-width:0.26458332px;stroke-linecap:butt;stroke-linejoin:miter;stroke-opacity:1"
       d="m 87.830463,47.519077 v 17.77342 L 143.42252,37.897372 v -14.43256 z"
       id="path369"
       inkscape:connector-curvature="0" />
    <path
       style="fill:none;stroke:#000000;stroke-width:0.26458332px;stroke-linecap:butt;stroke-linejoin:miter;stroke-opacity:1"
       d="M 83.554151,66.094307 V 47.919977 L 17.137675,32.017432 v 17.105265 z"
       id="path371"
       inkscape:connector-curvature="0" />
    <path
       style="fill:none;stroke:#000000;stroke-width:0.26458332px;stroke-linecap:butt;stroke-linejoin:miter;stroke-opacity:1"
       d="m 85.425039,43.777292 52.251181,-22.58427 -53.8548,-9.6217 -59.868372,17.77342 z"
       id="path373"
       inkscape:connector-curvature="0" />
    <path
       style="fill:#ffffff;fill-opacity:1;stroke-width:0.71428573"
       d="m 186.92947,232.94172 -136.607148,-34.61218 0.0045,-45.40666 0.0045,-45.40666 133.126358,-39.00856 133.12635,-39.008556 118.4763,20.956395 c 65.16198,11.526017 118.8781,20.963795 119.36918,20.972841 0.70355,0.01296 0.89285,8.572642 0.89285,40.37261 v 40.35617 l -51.60714,25.8179 c -28.38393,14.19985 -80.53571,40.16412 -115.89286,57.69839 l -64.28571,31.88049 z m 129.64958,-17.37571 -0.1853,-35.1645 -124.28571,-29.78975 C 123.75089,134.2274 66.938394,120.61517 65.858037,120.36236 l -1.964286,-0.45965 v 33.17271 33.17272 l 10.178571,2.64348 c 32.419268,8.41961 241.043098,61.71924 241.792448,61.77361 0.71428,0.0519 0.86142,-7.17811 0.71428,-35.09922 z m 120.65162,-19.71001 105.59165,-52.01735 0.18692,-28.03663 c 0.16719,-25.078844 0.0694,-28.012088 -0.92665,-27.804071 -0.61245,0.127904 -48.33828,20.643271 -106.0574,45.589691 l -104.94386,45.35715 -0.0224,34.46428 c -0.0123,18.95536 0.11319,34.46429 0.27885,34.46429 0.16567,0 47.81745,-23.40781 105.89286,-52.01736 z m -14.40835,-72.60798 c 54.21429,-23.449335 98.80962,-42.862947 99.10074,-43.141361 0.29112,-0.278414 -45.74874,-8.768667 -102.3108,-18.86723 L 316.77214,42.878406 203.36867,76.529447 C 140.99674,95.037519 89.505013,110.43004 88.942588,110.73507 c -0.674601,0.36585 0.297694,0.83497 2.857143,1.37853 2.133853,0.45317 54.826159,12.83684 117.094019,27.51924 62.26786,14.68241 113.69643,26.59518 114.28572,26.47281 0.58928,-0.12236 45.42857,-19.4083 99.64285,-42.85763 z"
       id="path387"
       inkscape:connector-curvature="0"
       transform="scale(0.26458333)" />
  </g>
  <g
     inkscape:groupmode="layer"
     id="layer5"
     inkscape:label="Up-fill"
     style="display:inline"
     transform="translate(-13.921614,-7.7045006)">
    <path
       style="fill:#f1931f;fill-opacity:1;stroke-width:0.13363476"
       d="m 49.916953,61.540259 -35.94775,-9.117803 -0.03412,-12.045389 c -0.03225,-11.386997 -0.0213,-12.049199 0.200453,-12.115088 0.129013,-0.03834 7.240372,-2.121619 15.803019,-4.62952 8.562647,-2.507901 24.288117,-7.117651 34.945491,-10.243889 l 19.377041,-5.6840694 0.868624,0.1346705 c 0.477745,0.074069 14.680679,2.5762149 31.562079,5.5603239 16.88139,2.98411 30.72763,5.425654 30.7694,5.425654 0.0418,0 0.076,4.815085 0.076,10.700186 v 10.700189 l -28.8317,14.371997 C 88.098539,69.854423 86.421756,70.680346 86.081861,70.666749 85.962426,70.66196 69.688217,66.55505 49.916953,61.540259 Z M 84.327904,56.92006 c 0,-8.655851 -0.0141,-9.21626 -0.23386,-9.285803 -0.128622,-0.04071 -15.147499,-3.644903 -33.375282,-8.009324 l -33.14142,-7.935314 -0.03439,8.693412 c -0.02243,5.671658 0.01193,8.722034 0.09885,8.775758 0.07328,0.04529 11.364188,2.952697 25.090904,6.460902 13.726715,3.508206 28.565803,7.304217 32.975748,8.435581 4.409948,1.131364 8.153392,2.061424 8.318764,2.066803 l 0.300678,0.0098 z m 16.863866,2.206932 c 7.07843,-3.485179 19.63513,-9.670071 27.90378,-13.744202 l 15.03391,-7.407515 0.0345,-7.370088 c 0.0274,-5.848108 -1.3e-4,-7.370091 -0.13348,-7.370091 -0.0924,0 -2.03229,0.806679 -4.31085,1.792622 -2.27856,0.985942 -14.6365,6.331775 -27.4621,11.879624 -12.825596,5.54785 -23.484639,10.16303 -23.68676,10.255956 l -0.367496,0.168955 v 9.065715 c 0,4.986142 0.02668,9.065713 0.05929,9.065713 0.03261,0 5.850736,-2.85151 12.929166,-6.336689 z m 11.17482,-26.614506 c 14.38161,-6.216298 26.17385,-11.327827 26.20498,-11.358954 0.16942,-0.169416 1.29021,0.03789 -30.62053,-5.663804 -12.768724,-2.281469 -23.333451,-4.148126 -23.477176,-4.148126 -0.143721,0 -12.69847,3.692968 -27.899439,8.206595 -15.200971,4.513627 -28.690503,8.518109 -29.976737,8.898847 -1.286235,0.380741 -2.38509,0.73628 -2.441902,0.790094 -0.05681,0.05381 0.183731,0.164787 0.534539,0.246612 2.744067,0.640054 54.362513,12.765358 57.232154,13.443977 2.021226,0.477985 3.81463,0.873127 3.98534,0.878094 0.170711,0.005 12.07716,-5.077034 26.458771,-11.293335 z"
       id="path4179"
       inkscape:connector-curvature="0" />
    <path
       style="fill:#111111;fill-opacity:1;stroke:url(#radialGradient939);stroke-width:0.13363476;opacity:1;stroke-opacity:1"
       d="m 84.653228,10.932664 c -5.00992,1.077039 -9.861486,2.863363 -14.81146,4.20156 -15.228503,4.553022 -30.518554,8.941565 -45.696473,13.63766 -1.06644,0.879644 0.734616,1.302943 1.466709,1.384241 19.877446,4.668788 39.737227,9.436876 59.640672,13.988466 2.249448,0.07628 4.163343,-1.557518 6.255432,-2.164726 15.564122,-6.68387 31.147152,-13.334645 46.645212,-20.168795 0.82565,-0.208151 0.80293,-1.414754 -0.15399,-1.349272 -17.75515,-3.309181 -35.55161,-6.491529 -53.346102,-9.529134 z"
       id="path4181"
       inkscape:connector-curvature="0" />
    <path
       style="fill:#1a1a1a;fill-opacity:1;stroke-width:0.13363476"
       d="m 17.115234,31.758783 c 0,5.921603 0,11.843205 0,17.764805 22.456273,5.733492 44.882996,11.594407 67.371597,17.193784 0.767443,-1.42053 0.156454,-3.238598 0.36897,-4.801775 -0.06977,-4.766733 0.07218,-9.563227 -0.272852,-14.311786 C 83.49865,46.720957 81.729378,46.794922 80.393846,46.29101 59.315837,41.163271 38.204248,36.167911 17.115234,31.082339 c 0,0.225481 0,0.450961 0,0.676444 z"
       id="path4183"
       inkscape:connector-curvature="0" />
    <path
       style="fill:#000000;fill-opacity:1;stroke-width:0.13363476"
       d="m 143.88631,22.840981 c -9.07781,3.653213 -18.00503,7.734459 -27.01985,11.562223 -9.70731,4.201446 -19.414834,8.402378 -29.121946,12.60426 -0.0246,6.127583 -0.205095,12.281535 0.23151,18.393193 0.656767,1.098873 1.974001,-0.530394 2.832031,-0.643562 17.910005,-8.805923 35.811325,-17.629788 53.715425,-26.447808 -0.0691,-5.036635 0.23086,-10.104726 -0.0935,-15.125691 -0.0828,-0.176278 -0.30465,-0.472612 -0.54363,-0.342615 z"
       id="path4185"
       inkscape:connector-curvature="0" />
  </g>
  <g
     inkscape:groupmode="layer"
     id="layer6"
     inkscape:label="Handle"
     transform="translate(-13.921614,-7.7045006)">
    <path
       style="fill:#000000;fill-opacity:1;stroke:#f59424;stroke-width:3.5;stroke-linecap:round;stroke-linejoin:round;stroke-miterlimit:4;stroke-dasharray:none;stroke-dashoffset:0;stroke-opacity:1;paint-order:normal"
       d="m 44.39247,68.076377 15.658009,3.949425"
       id="path6864"
       inkscape:connector-curvature="0" />
  </g>
  <g
     inkscape:groupmode="layer"
     id="layer3"
     inkscape:label="Text"
     style="display:inline"
     transform="translate(-13.921614,-7.7045006)">
    <g
       style="font-style:normal;font-weight:normal;font-size:medium;line-height:1.25;font-family:sans-serif;letter-spacing:0px;word-spacing:0px;fill:#ffffff;fill-opacity:1;stroke:#ececec;stroke-width:0.75590551;stroke-linecap:round;stroke-linejoin:round;stroke-miterlimit:4;stroke-dasharray:none;stroke-opacity:1;paint-order:normal"
       id="g4143"
       transform="matrix(0.26458333,0.08596834,0,0.26458333,2.3232104,-4.4014095)">
      <path
         inkscape:connector-curvature="0"
         d="m 101.46094,258.4707 h 5.52344 v 17.25391 l 18.32031,-17.25391 h 7.10937 l -20.26172,19.03125 21.71094,21.79297 h -7.27344 l -19.60546,-19.66015 v 19.66015 h -5.52344 z"
         style="font-size:56px;fill:#ffffff;stroke:#ececec;stroke-width:0.75590551;stroke-linecap:round;stroke-linejoin:round;stroke-miterlimit:4;stroke-dasharray:none;stroke-opacity:1;paint-order:normal"
         id="path421" />
      <path
         inkscape:connector-curvature="0"
         d="m 150.92578,283.90039 q -6.09766,0 -8.44922,1.39453 -2.35156,1.39453 -2.35156,4.75781 0,2.67969 1.75,4.26563 1.77734,1.55859 4.8125,1.55859 4.18359,0 6.69922,-2.95312 2.54297,-2.98047 2.54297,-7.90235 v -1.12109 z m 10.03516,-2.07812 v 17.47265 h -5.03125 v -4.64844 q -1.72266,2.78907 -4.29297,4.12891 -2.57031,1.3125 -6.28906,1.3125 -4.70313,0 -7.49219,-2.625 -2.76172,-2.65234 -2.76172,-7.08203 0,-5.16797 3.44531,-7.79297 3.47266,-2.625 10.33594,-2.625 h 7.05469 v -0.49219 q 0,-3.47265 -2.29688,-5.35937 -2.26953,-1.91406 -6.39844,-1.91406 -2.625,0 -5.11328,0.6289 -2.48828,0.62891 -4.78515,1.88672 v -4.64844 q 2.76172,-1.0664 5.35937,-1.58593 2.59766,-0.54688 5.0586,-0.54688 6.64453,0 9.92578,3.44531 3.28125,3.44532 3.28125,10.44532 z"
         style="font-size:56px;fill:#ffffff;stroke:#ececec;stroke-width:0.75590551;stroke-linecap:round;stroke-linejoin:round;stroke-miterlimit:4;stroke-dasharray:none;stroke-opacity:1;paint-order:normal"
         id="path423" />
      <path
         inkscape:connector-curvature="0"
         d="m 185.26735,273.44605 q -0.84766,-0.49219 -1.85938,-0.71094 -0.98437,-0.24609 -2.1875,-0.24609 -4.26562,0 -6.5625,2.78906 -2.26953,2.76172 -2.26953,7.95703 v 16.13281 h -5.05859 v -30.625 h 5.05859 v 4.75781 q 1.58594,-2.78906 4.12891,-4.1289 2.54296,-1.36719 6.17968,-1.36719 0.51953,0 1.14844,0.082 0.62891,0.0547 1.39453,0.19141 z"
         style="font-size:56px;fill:#ffffff;stroke:#ececec;stroke-width:0.75590551;stroke-linecap:round;stroke-linejoin:round;stroke-miterlimit:4;stroke-dasharray:none;stroke-opacity:1;paint-order:normal"
         id="path425" />
      <path
         inkscape:connector-curvature="0"
         d="m 199.40625,259.97461 v 8.69531 h 10.36328 v 3.91016 h -10.36328 v 16.625 q 0,3.74609 1.01172,4.8125 1.03906,1.0664 4.18359,1.0664 h 5.16797 v 4.21094 h -5.16797 q -5.82422,0 -8.03906,-2.16015 -2.21484,-2.1875 -2.21484,-7.92969 v -16.625 h -3.69141 v -3.91016 h 3.69141 v -8.69531 z"
         style="font-size:56px;fill:#ffffff;stroke:#ececec;stroke-width:0.75590551;stroke-linecap:round;stroke-linejoin:round;stroke-miterlimit:4;stroke-dasharray:none;stroke-opacity:1;paint-order:normal"
         id="path427" />
      <path
         inkscape:connector-curvature="0"
         d="m 228.28125,272.19727 q -4.04688,0 -6.39844,3.17187 -2.35156,3.14453 -2.35156,8.64063 0,5.49609 2.32422,8.66796 2.35156,3.14454 6.42578,3.14454 4.01953,0 6.37109,-3.17188 2.35157,-3.17187 2.35157,-8.64062 0,-5.44141 -2.35157,-8.61329 -2.35156,-3.19921 -6.37109,-3.19921 z m 0,-4.26563 q 6.5625,0 10.30859,4.26563 3.7461,4.26562 3.7461,11.8125 0,7.51953 -3.7461,11.8125 -3.74609,4.26562 -10.30859,4.26562 -6.58984,0 -10.33594,-4.26562 -3.71875,-4.29297 -3.71875,-11.8125 0,-7.54688 3.71875,-11.8125 3.7461,-4.26563 10.33594,-4.26563 z"
         style="font-size:56px;fill:#ffffff;stroke:#ececec;stroke-width:0.75590551;stroke-linecap:round;stroke-linejoin:round;stroke-miterlimit:4;stroke-dasharray:none;stroke-opacity:1;paint-order:normal"
         id="path429" />
      <path
         inkscape:connector-curvature="0"
         d="m 276.10547,280.81055 v 18.48437 h -5.03125 v -18.32031 q 0,-4.34766 -1.69531,-6.50781 -1.69532,-2.16016 -5.08594,-2.16016 -4.07422,0 -6.42578,2.59766 -2.35157,2.59765 -2.35157,7.08203 v 17.30859 h -5.05859 v -30.625 h 5.05859 v 4.75781 q 1.80469,-2.76171 4.23829,-4.1289 2.46093,-1.36719 5.66015,-1.36719 5.27735,0 7.98438,3.28125 2.70703,3.25391 2.70703,9.59766 z"
         style="font-size:56px;fill:#ffffff;stroke:#ececec;stroke-width:0.75590551;stroke-linecap:round;stroke-linejoin:round;stroke-miterlimit:4;stroke-dasharray:none;stroke-opacity:1;paint-order:normal"
         id="path431" />
    </g>
    <text
       xml:space="preserve"
       style="font-style:normal;font-weight:normal;font-size:10.58333302px;line-height:1.25;font-family:sans-serif;letter-spacing:0px;word-spacing:0px;fill:#000000;fill-opacity:1;stroke:none;stroke-width:0.26458332"
       x="104.76965"
       y="75.16629"
       id="text4229"><tspan
         sodipodi:role="line"
         id="tspan4227"
         x="104.76965"
         y="84.53006"
         style="stroke-width:0.26458332" /></text>
  </g>
</svg>
